<?xml version="1.0" encoding="utf-8"?>
<!-- Generator: Adobe Illustrator 19.0.0, SVG Export Plug-In . SVG Version: 6.00 Build 0)  -->
<svg version="1.1" id="Layer_1" xmlns="http://www.w3.org/2000/svg" xmlns:xlink="http://www.w3.org/1999/xlink" x="0px" y="0px"
	 viewBox="0 0 560 560" style="enable-background:new 0 0 560 560;" xml:space="preserve">
<style type="text/css">
	.st0{fill:none;stroke:#000000;stroke-miterlimit:10;}
</style>
<rect id="XMLID_1_" class="st0" width="560" height="560"/>
<g id="XMLID_2_">
	<path id="XMLID_15_" d="M280,12c36.2,0,71.3,7.1,104.3,21.1c31.9,13.5,60.6,32.8,85.2,57.4c24.6,24.6,43.9,53.3,57.4,85.2
		c14,33,21.1,68.1,21.1,104.3s-7.1,71.3-21.1,104.3c-13.5,31.9-32.8,60.6-57.4,85.2c-24.6,24.6-53.3,43.9-85.2,57.4
		c-33,14-68.1,21.1-104.3,21.1s-71.3-7.1-104.3-21.1c-31.9-13.5-60.6-32.8-85.2-57.4c-24.6-24.6-43.9-53.3-57.4-85.2
		C19.1,351.3,12,316.2,12,280s7.1-71.3,21.1-104.3c13.5-31.9,32.8-60.6,57.4-85.2s53.3-43.9,85.2-57.4C208.7,19.1,243.8,12,280,12
		 M280,0C125.4,0,0,125.4,0,280s125.4,280,280,280s280-125.4,280-280S434.6,0,280,0L280,0z"/>
</g>
</svg>
